HIERARCHY
ROOT Hips
{
	OFFSET 0.00000 0.00000 0.00000
	CHANNELS 6 Xposition Yposition Zposition Zrotation Yrotation Xrotation 
	JOINT LHipJoint
	{
		OFFSET 0 0 0
		CHANNELS 3 Zrotation Yrotation Xrotation
		JOINT LeftUpLeg
		{
			OFFSET 1.09156 -1.61406 0.76500
			CHANNELS 3 Zrotation Yrotation Xrotation
			JOINT LeftLeg
			{
				OFFSET 2.33750 -6.42225 0.00000
				CHANNELS 3 Zrotation Yrotation Xrotation
				JOINT LeftFoot
				{
					OFFSET 2.49247 -6.84800 0.00000
					CHANNELS 3 Zrotation Yrotation Xrotation
					JOINT LeftToeBase
					{
						OFFSET 0.15312 -0.42069 1.45461
						CHANNELS 3 Zrotation Yrotation Xrotation
						End Site
						{
							OFFSET 0.00000 -0.00000 0.77046
						}
					}
				}
			}
		}
	}
	JOINT RHipJoint
	{
		OFFSET 0 0 0
		CHANNELS 3 Zrotation Yrotation Xrotation
		JOINT RightUpLeg
		{
			OFFSET -0.99883 -1.61406 0.76500
			CHANNELS 3 Zrotation Yrotation Xrotation
			JOINT RightLeg
			{
				OFFSET -2.36877 -6.50815 0.00000
				CHANNELS 3 Zrotation Yrotation Xrotation
				JOINT RightFoot
				{
					OFFSET -2.53452 -6.96353 0.00000
					CHANNELS 3 Zrotation Yrotation Xrotation
					JOINT RightToeBase
					{
						OFFSET -0.13156 -0.36145 1.63237
						CHANNELS 3 Zrotation Yrotation Xrotation
						End Site
						{
							OFFSET -0.00000 -0.00000 0.84979
						}
					}
				}
			}
		}
	}
	JOINT LowerBack
	{
		OFFSET 0 0 0
		CHANNELS 3 Zrotation Yrotation Xrotation
		JOINT Spine
		{
			OFFSET -0.02431 1.98242 -0.13616
			CHANNELS 3 Zrotation Yrotation Xrotation
			JOINT Spine1
			{
				OFFSET 0.03629 1.98974 -0.02954
				CHANNELS 3 Zrotation Yrotation Xrotation
				JOINT Neck
				{
					OFFSET 0 0 0
					CHANNELS 3 Zrotation Yrotation Xrotation
					JOINT Neck1
					{
						OFFSET 0.09349 1.40783 0.22333
						CHANNELS 3 Zrotation Yrotation Xrotation
						JOINT Head
						{
							OFFSET -0.04273 1.44500 -0.06495
							CHANNELS 3 Zrotation Yrotation Xrotation
							End Site
							{
								OFFSET -0.02251 1.44600 -0.04544
							}
						}
					}
				}
				JOINT LeftShoulder
				{
					OFFSET 0 0 0
					CHANNELS 3 Zrotation Yrotation Xrotation
					JOINT LeftArm
					{
						OFFSET 3.49137 0.85126 -0.29740
						CHANNELS 3 Zrotation Yrotation Xrotation
						JOINT LeftForeArm
						{
							OFFSET 5.06035 -0.00000 0.00000
							CHANNELS 3 Zrotation Yrotation Xrotation
							JOINT LeftHand
							{
								OFFSET 3.14780 -0.00000 0.00000
								CHANNELS 3 Zrotation Yrotation Xrotation
								JOINT LeftFingerBase
								{
									OFFSET 0 0 0
									CHANNELS 3 Zrotation Yrotation Xrotation
									JOINT LeftHandIndex1
									{
										OFFSET 0.60675 -0.00000 0.00000
										CHANNELS 3 Zrotation Yrotation Xrotation
										End Site
										{
											OFFSET 0.48918 -0.00000 0.00000
										}
									}
								}
								JOINT LThumb
								{
									OFFSET 0 0 0
									CHANNELS 3 Zrotation Yrotation Xrotation
									End Site
									{
										OFFSET 0.49664 -0.00000 0.49664
									}
								}
							}
						}
					}
				}
				JOINT RightShoulder
				{
					OFFSET 0 0 0
					CHANNELS 3 Zrotation Yrotation Xrotation
					JOINT RightArm
					{
						OFFSET -3.28101 0.69707 0.00747
						CHANNELS 3 Zrotation Yrotation Xrotation
						JOINT RightForeArm
						{
							OFFSET -5.12273 -0.00000 -0.00000
							CHANNELS 3 Zrotation Yrotation Xrotation
							JOINT RightHand
							{
								OFFSET -3.42200 -0.00000 0.00000
								CHANNELS 3 Zrotation Yrotation Xrotation
								JOINT RightFingerBase
								{
									OFFSET 0 0 0
									CHANNELS 3 Zrotation Yrotation Xrotation
									JOINT RightHandIndex1
									{
										OFFSET -0.70460 -0.00000 0.00000
										CHANNELS 3 Zrotation Yrotation Xrotation
										End Site
										{
											OFFSET -0.56807 -0.00000 0.00000
										}
									}
								}
								JOINT RThumb
								{
									OFFSET 0 0 0
									CHANNELS 3 Zrotation Yrotation Xrotation
									End Site
									{
										OFFSET -0.57674 -0.00000 0.57674
									}
								}
							}
						}
					}
				}
			}
		}
	}
}
MOTION
Frames: 7
Frame Time: .0083333
-23.2985 15.9996 3.4767 0 0 0 0 0 0 -21 0 0 0 0 0 0 0 0 0 0 0 0 0 0 21 0 0 0 0 0 0 0 0 0 0 0 0 0 0 0 0 0 0 0 0 0 0 -16 0 0 21 0 0 11 0 0 0 -8 0 0 0 0 0 0 0 0 0 0 0 0 0 0 0 0 0 0 0 0 8 0 0 0 0 0 0 0 0 0 0 0 0 0 0 0 0 0
-23.2985 15.9996 3.4767 -179.9380 -1.5969 -177.4320 0.0000 0.0000 0.0000 -23.0064 1.8059 -10.1853 2.4000 9.6538 27.8628 1.5598 5.8954 -26.3556 0.0011 0.2125 0.5838 0.0000 0.0000 0.0000 7.6388 8.5736 -2.0196 -0.5915 -4.9241 13.6921 1.1527 -18.6126 -7.9559 -0.7219 5.4294 -15.1373 -6.1432 1.2469 -5.9131 -0.7453 2.0374 -0.2439 2.8391 0.9107 2.8771 8.9725 3.5716 -1.0898 -2.5744 3.5958 -17.2777 -2.3701 0.8311 -4.7934 0.0000 -0.0000 0.0000 -89.1378 -8.2620 -7.6077 4.8034 -8.2524 -0.3467 -0.0000 -0.0000 25.4363 18.3485 45.1188 13.2247 -7.1250 0.0000 -0.0000 -36.0259 74.0012 -25.5008 0.0000 -0.0000 0.0000 94.9436 5.2102 0.0494 -6.7926 11.5774 -0.6894 0.0000 0.0000 28.1033 -14.3809 24.5060 -6.0707 7.1250 -0.0000 -0.0000 9.2125 -5.0532 8.4779
-23.2959 16.0074 3.4757 -179.8930 -1.6195 -177.4220 0.0000 0.0000 0.0000 -22.9329 1.7034 -10.2709 2.4385 9.7252 28.0915 1.6132 5.7066 -26.6301 0.0065 0.5203 1.4298 0.0000 0.0000 0.0000 7.7322 8.5390 -1.6725 -0.5385 -4.7017 13.0596 1.1783 -18.7917 -7.4900 -0.7367 5.4834 -15.2927 -6.0705 1.1962 -5.8990 -0.7198 1.9645 -0.2477 2.8189 0.8761 2.8735 8.7247 3.5796 -1.2023 -2.1916 3.6514 -17.0416 -2.2073 0.8638 -4.7135 -0.0000 -0.0000 0.0000 -89.1248 -8.1570 -7.7505 4.8506 -8.3322 -0.3535 -0.0000 -0.0000 25.5724 17.9205 44.8456 12.8467 -7.1250 0.0000 -0.0000 -35.8188 73.6437 -25.0844 -0.0000 -0.0000 0.0000 94.9347 5.1089 0.1533 -6.8673 11.7007 -0.7045 0.0000 0.0000 27.4621 -14.4891 24.9926 -6.2309 7.1250 -0.0000 -0.0000 9.1749 -4.5503 8.5303
-23.2959 16.0131 3.4759 -179.7310 -1.4575 -177.4330 0.0000 0.0000 0.0000 -22.7822 1.5871 -10.2500 2.4520 9.7502 28.1714 1.6062 5.8558 -26.6660 0.0078 0.5690 1.5636 0.0000 0.0000 0.0000 7.9166 8.6202 -1.5869 -0.5223 -4.6316 12.8608 1.1695 -18.7231 -7.3333 -0.7719 5.6099 -15.6566 -5.8065 1.2413 -5.8680 -0.7003 2.0072 -0.2458 2.6939 0.9024 2.8624 8.9152 3.5336 -1.1960 -2.2704 3.5910 -16.9650 -2.2604 0.8323 -4.6895 -0.0000 0.0000 0.0000 -89.0911 -8.1458 -7.8215 4.8398 -8.3139 -0.3520 -0.0000 -0.0000 25.6783 17.9291 44.6301 12.8060 -7.1250 0.0000 -0.0000 -35.2861 73.4879 -24.5756 -0.0000 0.0000 0.0000 94.8910 5.0227 0.7068 -6.8277 11.6353 -0.6965 0.0000 0.0000 26.5206 -14.7813 25.7985 -6.5509 7.1250 -0.0000 -0.0000 9.0486 -3.7013 8.5549
-23.2946 16.0125 3.4806 -179.7470 -1.3515 -177.4100 0.0000 0.0000 0.0000 -22.8191 1.4709 -10.2700 2.4623 9.7691 28.2322 1.5783 6.1117 -26.6158 0.0053 0.4719 1.2967 0.0000 0.0000 0.0000 7.9020 8.7721 -1.5182 -0.5080 -4.5687 12.6824 1.1719 -18.7415 -7.3077 -0.7663 5.5900 -15.5993 -5.7169 1.2765 -5.8347 -0.7565 2.0459 -0.2526 2.5875 0.9234 2.8383 8.9233 3.4196 -1.3265 -2.1705 3.4345 -16.8452 -2.2225 0.7531 -4.6424 0.0000 0.0000 0.0000 -88.9805 -8.1277 -7.8519 4.8571 -8.3431 -0.3545 -0.0000 -0.0000 25.7724 17.7889 44.7364 12.7256 -7.1250 0.0000 -0.0000 -35.6983 73.5153 -24.9011 0.0000 0.0000 0.0000 95.0575 4.8998 1.1012 -7.0445 11.9925 -0.7409 0.0000 0.0000 26.0669 -14.9271 25.1547 -6.4649 7.1250 -0.0000 -0.0000 8.9181 -4.3272 8.3232
-23.2948 16.0109 3.4844 -179.7810 -1.1982 -177.3770 0.0000 0.0000 0.0000 -22.8989 1.2471 -10.2545 2.4735 9.7896 28.2981 1.5626 6.4549 -26.7086 0.0064 0.5161 1.4183 0.0000 0.0000 0.0000 7.8304 8.8495 -1.5268 -0.4958 -4.5142 12.5280 1.1592 -18.6437 -7.1789 -0.7665 5.5909 -15.6018 -5.6692 1.3069 -5.8342 -0.7620 2.0828 -0.2643 2.5577 0.9429 2.8245 8.8672 3.3244 -1.4481 -2.1024 3.3010 -16.7198 -2.1851 0.6924 -4.5936 -0.0000 0.0000 0.0000 -88.9850 -8.1053 -7.9251 4.8775 -8.3777 -0.3574 -0.0000 -0.0000 25.8756 17.4652 44.9338 12.5287 -7.1250 0.0000 -0.0000 -36.5354 73.5415 -25.5432 -0.0000 0.0000 0.0000 95.0970 5.0938 -0.3912 -6.9183 11.7847 -0.7149 0.0000 0.0000 27.3971 -14.2499 25.4983 -6.2393 7.1250 -0.0000 -0.0000 9.3512 -4.0761 8.7828
-23.2934 16.0069 3.4882 -179.6760 -0.9970 -177.3810 0.0000 0.0000 0.0000 -22.8020 1.1604 -10.2824 2.4911 9.8218 28.4015 1.5412 6.7800 -26.7546 0.0071 0.5452 1.4980 0.0000 0.0000 0.0000 7.9123 8.7972 -1.4982 -0.4733 -4.4121 12.2390 1.1254 -18.3820 -6.9305 -0.7834 5.6505 -15.7736 -5.5551 1.3354 -5.7834 -0.6615 2.1104 -0.2787 2.5982 0.9610 2.7791 8.7657 3.2595 -1.4917 -2.0485 3.2184 -16.6185 -2.1479 0.6612 -4.5624 0.0000 -0.0000 0.0000 -89.1467 -8.1458 -8.0492 4.8434 -8.3200 -0.3525 -0.0000 -0.0000 25.9675 17.5231 45.0920 12.6052 -7.1250 0.0000 -0.0000 -36.8635 73.6775 -25.8901 0.0000 -0.0000 0.0000 94.9438 5.0829 -0.0047 -6.9132 11.7762 -0.7138 0.0000 0.0000 27.1673 -14.7822 25.4400 -6.4671 7.1250 -0.0000 -0.0000 9.0246 -4.0609 8.4706
